# Blender v2.79 (sub 0) OBJ File: 'floorplan.blend'
# www.blender.org
mtllib floorplan.mtl
o Cube_Cube.001
v -3.000000 0.000000 5.000000
v -3.000000 2.000000 5.000000
v -3.000000 0.000000 -5.000000
v -3.000000 2.000000 -5.000000
v 3.000000 0.000000 5.000000
v 3.000000 2.000000 5.000000
v 3.000000 0.000000 -5.000000
v 1.316250 2.000000 -5.000000
v -3.000000 0.000000 1.000000
v -3.000000 2.000000 1.000000
v 3.000000 0.000000 1.000000
v 3.000000 2.000000 1.000000
v -0.367500 0.000000 -5.000000
v -0.300000 0.000000 5.000000
v -0.300000 2.000000 5.000000
v -0.300000 0.000000 1.000000
v 1.873193 2.000000 -1.460000
v -0.435000 2.000000 5.000000
v 0.803992 2.000000 -1.460000
v -0.435000 0.000000 5.000000
v 0.782122 2.000000 -2.540000
v -3.000000 0.000000 1.120000
v -3.000000 2.000000 1.120000
v -0.300000 0.000000 2.520000
v -0.435000 0.000000 2.520000
v -0.300000 0.000000 3.480000
v -0.435000 0.000000 3.480000
v 7.000000 0.000000 1.000000
v 7.000000 2.000000 1.000000
v -0.300000 2.000000 3.480000
v -0.435000 2.000000 3.480000
v 1.873193 0.000000 -2.540000
v 0.803992 0.000000 -1.460000
v -0.435000 0.000000 1.120000
v 1.873193 0.000000 -1.460000
v -0.300000 2.000000 1.000000
v 1.873193 2.000000 -2.540000
v 0.782122 0.000000 -2.540000
v 7.000000 2.000000 -5.000000
v -0.435000 2.000000 1.120000
v -0.435000 2.000000 2.520000
v -0.300000 2.000000 2.520000
v 7.000000 0.000000 -5.000000
v 3.560000 0.000000 1.000000
v 3.560000 2.000000 1.000000
v 6.440000 2.000000 1.000000
v 6.440000 0.000000 1.000000
v 3.560000 0.000000 1.230505
v 3.560000 2.000000 1.230505
v 6.440000 2.000000 1.230505
v 6.440000 0.000000 1.230505
v 3.020000 0.000000 1.230505
v 3.020000 2.000000 1.230505
v 6.980000 2.000000 1.230505
v 6.980000 0.000000 1.230505
v 3.020000 0.000000 5.230505
v 3.020000 2.000000 5.230505
v 6.980000 2.000000 5.230505
v 6.980000 0.000000 5.230505
v -2.325000 0.864360 1.000000
v -2.325000 1.364360 1.000000
v -0.975000 0.864360 1.000000
v -0.975000 1.364360 1.000000
v -2.325000 0.864360 1.121565
v -2.325000 1.364360 1.121565
v -0.975000 0.864360 1.121565
v -0.975000 1.364360 1.121565
vn 1.0000 0.0000 0.0000
vn 0.0000 0.0000 1.0000
vn 0.0000 0.0000 -1.0000
vn 0.0000 1.0000 0.0000
vn 0.0000 -1.0000 0.0000
vn -1.0000 0.0000 0.0000
vn 0.0029 0.0000 1.0000
vn -0.9998 0.0000 0.0202
vn 0.0000 0.0025 1.0000
vn 0.0000 -0.0018 1.0000
vn -0.0023 0.0000 1.0000
usemtl None
s off
f 3//1 10//1 9//1
f 13//2 7//2 8//2
f 1//3 18//3 20//3
f 26//4 14//4 5//4
f 7//4 35//4 11//4
f 63//5 65//5 61//5
f 20//6 31//6 27//6
f 14//3 6//3 5//3
f 38//3 37//3 32//3
f 13//2 4//2 3//2
f 1//4 20//4 27//4
f 9//4 13//4 3//4
f 28//3 46//3 29//3
f 22//4 25//4 34//4
f 16//1 42//1 24//1
f 22//1 2//1 1//1
f 16//4 24//4 11//4
f 22//4 27//4 25//4
f 27//4 24//4 25//4
f 26//4 11//4 24//4
f 5//6 12//6 11//6
f 7//2 39//2 8//2
f 27//3 30//3 26//3
f 12//3 44//3 11//3
f 26//1 15//1 14//1
f 35//2 19//2 33//2
f 7//4 38//4 32//4
f 24//2 41//2 25//2
f 45//1 48//1 44//1
f 28//6 39//6 43//6
f 16//4 38//4 13//4
f 16//4 35//4 33//4
f 40//7 66//7 34//7
f 9//3 62//3 16//3
f 25//6 40//6 34//6
f 51//2 54//2 50//2
f 47//6 50//6 46//6
f 44//4 51//4 47//4
f 49//2 52//2 48//2
f 57//3 59//3 56//3
f 55//6 58//6 54//6
f 53//1 56//1 52//1
f 43//4 47//4 28//4
f 11//4 44//4 7//4
f 7//4 47//4 43//4
f 48//4 52//4 56//4
f 48//4 59//4 51//4
f 55//4 51//4 59//4
f 33//8 21//8 38//8
f 32//1 17//1 35//1
f 10//3 60//3 9//3
f 36//3 62//3 63//3
f 36//3 61//3 10//3
f 65//9 40//9 23//9
f 60//4 66//4 62//4
f 62//6 67//6 63//6
f 61//1 64//1 60//1
f 34//10 64//10 22//10
f 23//11 64//11 65//11
f 3//1 4//1 10//1
f 1//3 2//3 18//3
f 7//4 32//4 35//4
f 63//5 67//5 65//5
f 20//6 18//6 31//6
f 14//3 15//3 6//3
f 38//3 21//3 37//3
f 13//2 8//2 4//2
f 9//4 16//4 13//4
f 28//3 47//3 46//3
f 16//1 36//1 42//1
f 22//1 23//1 2//1
f 22//4 1//4 27//4
f 27//4 26//4 24//4
f 26//4 5//4 11//4
f 5//6 6//6 12//6
f 7//2 43//2 39//2
f 27//3 31//3 30//3
f 12//3 45//3 44//3
f 26//1 30//1 15//1
f 35//2 17//2 19//2
f 7//4 13//4 38//4
f 24//2 42//2 41//2
f 45//1 49//1 48//1
f 28//6 29//6 39//6
f 16//4 33//4 38//4
f 16//4 11//4 35//4
f 40//7 67//7 66//7
f 9//3 60//3 62//3
f 25//6 41//6 40//6
f 51//2 55//2 54//2
f 47//6 51//6 50//6
f 44//4 48//4 51//4
f 49//2 53//2 52//2
f 57//3 58//3 59//3
f 55//6 59//6 58//6
f 53//1 57//1 56//1
f 7//4 44//4 47//4
f 48//4 56//4 59//4
f 33//8 19//8 21//8
f 32//1 37//1 17//1
f 10//3 61//3 60//3
f 36//3 16//3 62//3
f 36//3 63//3 61//3
f 65//9 67//9 40//9
f 60//4 64//4 66//4
f 62//6 66//6 67//6
f 61//1 65//1 64//1
f 34//10 66//10 64//10
f 23//11 22//11 64//11
