# Blender v2.80 (sub 41) OBJ File: 'brachi.blend'
# www.blender.org
mtllib para.mtl
o Icosphere
v -0.000000 0.992033 -0.000000
v 0.578886 1.434258 0.420580
v -0.221110 1.434257 0.680519
v -0.715541 1.434261 -0.000000
v -0.221110 1.434257 -0.680519
v 0.578886 1.434258 -0.420580
v 0.221110 2.149809 0.680519
v -0.578886 2.149809 0.420580
v -0.578886 2.149809 -0.420580
v 0.221110 2.149809 -0.680519
v 0.715541 2.149806 -0.000000
v -0.000000 2.592033 -0.000000
v -0.129964 1.111510 0.399996
v 0.340258 1.111510 0.247209
v 0.210295 1.371443 0.647209
v 0.680518 1.371445 -0.000000
v 0.340258 1.111510 -0.247209
v -0.420584 1.111512 -0.000000
v -0.550552 1.371444 0.399998
v -0.129964 1.111510 -0.399996
v -0.550552 1.371444 -0.399998
v 0.210295 1.371443 -0.647209
v 0.760846 1.792033 0.247210
v 0.760846 1.792033 -0.247210
v -0.000000 1.792033 0.800000
v 0.470228 1.792033 0.647213
v -0.760846 1.792033 0.247210
v -0.470228 1.792033 0.647213
v -0.470228 1.792033 -0.647213
v -0.760846 1.792033 -0.247210
v 0.470228 1.792033 -0.647213
v -0.000000 1.792033 -0.800000
v 0.550552 2.212622 0.399998
v -0.210295 2.212623 0.647209
v -0.680518 2.212622 -0.000000
v -0.210295 2.212623 -0.647209
v 0.550552 2.212622 -0.399998
v 0.129964 2.472557 0.399996
v 0.420584 2.472555 -0.000000
v -0.340258 2.472557 0.247209
v -0.340258 2.472557 -0.247209
v 0.129964 2.472557 -0.399996
v 0.360000 0.700293 0.344555
v 0.640000 0.700293 0.344555
v 0.640000 0.700293 0.064555
v 0.360000 0.700293 0.064555
v -0.640000 0.700293 0.344555
v -0.360000 0.700293 0.344555
v -0.360000 0.700293 0.064555
v -0.640000 0.700293 0.064555
v -0.360000 1.400000 0.500949
v -0.360000 0.000000 0.450949
v -0.640000 1.400000 0.500949
v -0.640000 0.000000 0.450949
v -0.360000 1.400000 0.220949
v -0.360000 0.000000 0.170949
v -0.640000 1.400000 0.220949
v -0.640000 0.000000 0.170949
v 0.640000 1.400000 0.500948
v 0.640000 0.000000 0.450948
v 0.360000 1.400000 0.500948
v 0.360000 0.000000 0.450948
v 0.640000 1.400000 0.220948
v 0.640000 0.000000 0.170948
v 0.360000 1.400000 0.220949
v 0.360000 0.000000 0.170948
v 0.320000 0.000000 -1.050254
v 0.320000 1.900000 -1.350254
v 0.880000 0.000000 -1.050254
v 0.880000 1.900000 -1.350254
v 0.320000 0.000000 -0.690254
v 0.320000 1.900000 -0.790254
v 0.880000 0.000000 -0.690254
v 0.880000 1.900000 -0.790254
v -0.880000 0.000000 -1.050254
v -0.880000 1.900000 -1.350254
v -0.320000 0.000000 -1.050254
v -0.320000 1.900000 -1.350254
v -0.880000 0.000000 -0.690254
v -0.880000 1.900000 -0.790254
v -0.320000 0.000000 -0.690254
v -0.320000 1.900000 -0.790254
v -0.880000 1.034601 -1.161870
v -0.320000 1.034601 -1.161870
v -0.320000 1.034601 -0.601871
v -0.880000 1.034601 -0.601870
v 0.320000 1.034601 -1.161870
v 0.880000 1.034601 -1.161871
v 0.880000 1.034601 -0.601871
v 0.320000 1.034601 -0.601871
v 0.000000 1.107721 -1.072909
v 0.587424 1.556468 -0.646126
v -0.224372 1.556467 -0.382353
v -0.726094 1.556471 -1.072909
v -0.224372 1.556467 -1.763466
v 0.587424 1.556468 -1.499692
v 0.224372 2.282573 -0.382353
v -0.587424 2.282573 -0.646126
v -0.587424 2.282573 -1.499692
v 0.224372 2.282573 -1.763466
v 0.726094 2.282569 -1.072909
v 0.000000 2.731319 -1.072909
v -0.131881 1.228960 -0.667013
v 0.345277 1.228960 -0.822054
v 0.213397 1.492727 -0.416154
v 0.690555 1.492728 -1.072909
v 0.345277 1.228960 -1.323764
v -0.426787 1.228962 -1.072909
v -0.558672 1.492728 -0.667012
v -0.131881 1.228960 -1.478805
v -0.558672 1.492728 -1.478806
v 0.213397 1.492727 -1.729664
v 0.772068 1.919520 -0.822053
v 0.772068 1.919520 -1.323765
v 0.000000 1.919520 -0.261110
v 0.477164 1.919520 -0.416150
v -0.772068 1.919520 -0.822053
v -0.477164 1.919520 -0.416150
v -0.477164 1.919520 -1.729668
v -0.772068 1.919520 -1.323765
v 0.477164 1.919520 -1.729668
v 0.000000 1.919520 -1.884708
v 0.558672 2.346313 -0.667012
v -0.213397 2.346314 -0.416154
v -0.690555 2.346312 -1.072909
v -0.213397 2.346314 -1.729664
v 0.558672 2.346313 -1.478806
v 0.131881 2.610081 -0.667013
v 0.426787 2.610079 -1.072909
v -0.345277 2.610081 -0.822054
v -0.345277 2.610081 -1.323764
v 0.131881 2.610081 -1.478805
v -0.200000 2.338413 1.617611
v -0.200000 2.710227 1.470118
v -0.400000 1.615097 0.634688
v -0.400000 2.358726 0.339703
v 0.200000 2.338413 1.617611
v 0.200000 2.710227 1.470118
v 0.400000 1.615097 0.634688
v 0.400000 2.358726 0.339703
v -0.173655 1.953611 1.815309
v -0.173655 2.185275 2.090044
v -0.229561 2.569487 1.295987
v -0.229561 2.801151 1.570723
v 0.173655 1.953611 1.815309
v 0.173655 2.185275 2.090044
v 0.229561 2.569487 1.295987
v 0.229561 2.801151 1.570723
v 0.080543 1.473565 -5.159787
v 0.080543 1.658368 -5.145457
v 0.487102 1.375073 -1.514704
v 0.487102 2.492391 -1.605336
v -0.080544 1.473565 -5.159787
v -0.080544 1.658368 -5.145457
v -0.487101 1.375073 -1.514704
v -0.487101 2.492391 -1.605336
v -0.320000 0.443753 -1.344445
v -0.320000 0.443753 -0.984445
v -0.880000 0.443753 -0.984445
v -0.880000 0.443753 -1.344445
v 0.880000 0.443753 -1.344445
v 0.880000 0.443753 -0.984446
v 0.320000 0.443753 -0.984445
v 0.320000 0.443753 -1.344445
v 0.283822 1.593841 -3.241561
v 0.283822 2.221917 -3.399339
v -0.283822 1.593841 -3.241561
v -0.283822 2.221917 -3.399339
v -0.070608 3.426781 0.685781
v -0.070608 3.153006 0.697377
v -0.153491 2.784043 1.583430
v -0.153491 2.581217 1.286766
v 0.070608 3.426781 0.685781
v 0.070608 3.153006 0.697377
v 0.153491 2.784043 1.583430
v 0.153491 2.581217 1.286766
v -0.128771 3.226188 1.175336
v -0.128771 3.018642 1.093507
v 0.128771 3.226188 1.175336
v 0.128771 3.018642 1.093507
vt 0.818181 0.000000
vt 0.772726 0.078731
vt 0.863635 0.078731
vt 0.727272 0.157461
vt 0.681818 0.078731
vt 0.636363 0.157461
vt 0.090909 0.000000
vt 0.045454 0.078731
vt 0.136363 0.078731
vt 0.272727 0.000000
vt 0.227273 0.078731
vt 0.318182 0.078731
vt 0.454545 0.000000
vt 0.409090 0.078731
vt 0.500000 0.078731
vt 0.681818 0.236191
vt 0.909090 0.157461
vt 0.818181 0.157461
vt 0.863635 0.236191
vt 0.181818 0.157461
vt 0.090909 0.157461
vt 0.136363 0.236191
vt 0.363636 0.157461
vt 0.272727 0.157461
vt 0.318182 0.236191
vt 0.545454 0.157461
vt 0.454545 0.157461
vt 0.500000 0.236191
vt 0.772726 0.236191
vt 0.954545 0.236191
vt 0.227273 0.236191
vt 0.409090 0.236191
vt 0.590909 0.236191
vt 0.818181 0.314921
vt 0.727272 0.314921
vt 0.772726 0.393651
vt 1.000000 0.314921
vt 0.909091 0.314921
vt 0.954545 0.393651
vt 0.272727 0.314921
vt 0.181818 0.314921
vt 0.227273 0.393651
vt 0.454545 0.314921
vt 0.363636 0.314921
vt 0.409090 0.393651
vt 0.636363 0.314921
vt 0.545454 0.314921
vt 0.590909 0.393651
vt 0.500000 0.393651
vt 0.545454 0.472382
vt 0.318182 0.393651
vt 0.363636 0.472382
vt 0.136363 0.393651
vt 0.181818 0.472382
vt 0.090909 0.314921
vt 0.863635 0.393651
vt 0.909090 0.472382
vt 0.681818 0.393651
vt 0.727272 0.472382
vt 0.045454 0.236191
vt 0.000000 0.157461
vt 0.590909 0.078731
vt 0.636363 0.000000
vt 0.375000 0.000000
vt 0.500000 0.000000
vt 0.500000 0.250000
vt 0.375000 0.250000
vt 0.375000 0.750000
vt 0.500000 0.750000
vt 0.500000 1.000000
vt 0.375000 1.000000
vt 0.125000 0.500000
vt 0.375000 0.500000
vt 0.125000 0.750000
vt 0.375000 0.750000
vt 0.500000 0.750000
vt 0.500000 1.000000
vt 0.375000 1.000000
vt 0.375000 0.250000
vt 0.500000 0.250000
vt 0.500000 0.500000
vt 0.375000 0.500000
vt 0.500000 0.500000
vt 0.625000 0.500000
vt 0.875000 0.500000
vt 0.875000 0.750000
vt 0.625000 0.750000
vt 0.500000 0.000000
vt 0.625000 0.000000
vt 0.625000 0.250000
vt 0.625000 0.000000
vt 0.625000 0.250000
vt 0.625000 0.500000
vt 0.625000 0.750000
vt 0.125000 0.500000
vt 0.125000 0.750000
vt 0.625000 1.000000
vt 0.625000 1.000000
vt 0.875000 0.500000
vt 0.875000 0.750000
vt 0.375000 0.000000
vt 0.500000 0.000000
vt 0.625000 0.000000
vt 0.625000 0.250000
vt 0.500000 0.250000
vt 0.625000 0.500000
vt 0.500000 0.500000
vt 0.625000 0.750000
vt 0.500000 0.750000
vt 0.625000 1.000000
vt 0.500000 1.000000
vt 0.125000 0.500000
vt 0.375000 0.500000
vt 0.375000 0.750000
vt 0.125000 0.750000
vt 0.875000 0.500000
vt 0.875000 0.750000
vt 0.500000 0.000000
vt 0.625000 0.000000
vt 0.625000 0.250000
vt 0.500000 0.250000
vt 0.625000 0.500000
vt 0.500000 0.500000
vt 0.625000 0.750000
vt 0.500000 0.750000
vt 0.625000 1.000000
vt 0.500000 1.000000
vt 0.125000 0.500000
vt 0.375000 0.500000
vt 0.375000 0.750000
vt 0.125000 0.750000
vt 0.875000 0.500000
vt 0.875000 0.750000
vt 0.437500 0.750000
vt 0.437500 1.000000
vt 0.437500 0.500000
vt 0.437500 0.250000
vt 0.437500 0.000000
vt 0.437500 0.750000
vt 0.437500 1.000000
vt 0.437500 0.500000
vt 0.437500 0.250000
vt 0.437500 0.000000
vt 0.818181 0.000000
vt 0.772726 0.078731
vt 0.863635 0.078731
vt 0.727272 0.157461
vt 0.681818 0.078731
vt 0.636363 0.157461
vt 0.090909 0.000000
vt 0.045454 0.078731
vt 0.136363 0.078731
vt 0.272727 0.000000
vt 0.227273 0.078731
vt 0.318182 0.078731
vt 0.454545 0.000000
vt 0.409090 0.078731
vt 0.500000 0.078731
vt 0.681818 0.236191
vt 0.909090 0.157461
vt 0.818181 0.157461
vt 0.863635 0.236191
vt 0.181818 0.157461
vt 0.090909 0.157461
vt 0.136363 0.236191
vt 0.363636 0.157461
vt 0.272727 0.157461
vt 0.318182 0.236191
vt 0.545454 0.157461
vt 0.454545 0.157461
vt 0.500000 0.236191
vt 0.772726 0.236191
vt 0.954545 0.236191
vt 0.227273 0.236191
vt 0.409090 0.236191
vt 0.590909 0.236191
vt 0.818181 0.314921
vt 0.727272 0.314921
vt 0.772726 0.393651
vt 1.000000 0.314921
vt 0.909091 0.314921
vt 0.954545 0.393651
vt 0.272727 0.314921
vt 0.181818 0.314921
vt 0.227273 0.393651
vt 0.454545 0.314921
vt 0.363636 0.314921
vt 0.409090 0.393651
vt 0.636363 0.314921
vt 0.545454 0.314921
vt 0.590909 0.393651
vt 0.500000 0.393651
vt 0.545454 0.472382
vt 0.318182 0.393651
vt 0.363636 0.472382
vt 0.136363 0.393651
vt 0.181818 0.472382
vt 0.090909 0.314921
vt 0.863635 0.393651
vt 0.909090 0.472382
vt 0.681818 0.393651
vt 0.727272 0.472382
vt 0.045454 0.236191
vt 0.000000 0.157461
vt 0.590909 0.078731
vt 0.636363 0.000000
vt 0.375000 0.000000
vt 0.625000 0.000000
vt 0.625000 0.250000
vt 0.375000 0.250000
vt 0.625000 0.500000
vt 0.375000 0.500000
vt 0.625000 0.750000
vt 0.375000 0.750000
vt 0.625000 1.000000
vt 0.375000 1.000000
vt 0.125000 0.500000
vt 0.125000 0.750000
vt 0.875000 0.500000
vt 0.875000 0.750000
vt 0.375000 0.000000
vt 0.625000 0.000000
vt 0.625000 0.250000
vt 0.375000 0.250000
vt 0.625000 0.500000
vt 0.375000 0.500000
vt 0.625000 0.750000
vt 0.375000 0.750000
vt 0.625000 1.000000
vt 0.375000 1.000000
vt 0.125000 0.500000
vt 0.125000 0.750000
vt 0.875000 0.500000
vt 0.875000 0.750000
vt 0.375000 0.125000
vt 0.625000 0.125000
vt 0.625000 0.250000
vt 0.375000 0.250000
vt 0.625000 0.500000
vt 0.375000 0.500000
vt 0.375000 0.625000
vt 0.625000 0.625000
vt 0.625000 0.750000
vt 0.375000 0.750000
vt 0.625000 1.000000
vt 0.375000 1.000000
vt 0.125000 0.625000
vt 0.125000 0.750000
vt 0.875000 0.625000
vt 0.875000 0.750000
vt 0.375000 0.000000
vt 0.375000 0.250000
vt 0.375000 1.000000
vt 0.375000 0.000000
vt 0.375000 0.250000
vt 0.375000 1.000000
vt 0.875000 0.500000
vt 0.125000 0.500000
vt 0.375000 0.000000
vt 0.625000 0.000000
vt 0.375000 0.084675
vt 0.625000 0.084675
vt 0.625000 0.250000
vt 0.375000 0.250000
vt 0.625000 0.500000
vt 0.375000 0.500000
vt 0.375000 0.665325
vt 0.625000 0.665325
vt 0.625000 0.750000
vt 0.375000 0.750000
vt 0.625000 1.000000
vt 0.375000 1.000000
vt 0.125000 0.665325
vt 0.125000 0.750000
vt 0.875000 0.665325
vt 0.875000 0.750000
vt 0.875000 0.500000
vt 0.125000 0.500000
vt 0.375000 0.000000
vt 0.625000 0.000000
vn 0.1024 -0.9435 0.3151
vn 0.7002 -0.6617 0.2680
vn -0.2680 -0.9435 0.1947
vn -0.2680 -0.9435 -0.1947
vn 0.1024 -0.9435 -0.3151
vn 0.9050 -0.3304 0.2680
vn 0.0247 -0.3304 0.9435
vn -0.8897 -0.3304 0.3151
vn -0.5746 -0.3304 -0.7488
vn 0.5346 -0.3304 -0.7779
vn 0.8026 -0.1256 0.5831
vn -0.3066 -0.1256 0.9435
vn -0.9921 -0.1256 0.0000
vn -0.3066 -0.1256 -0.9435
vn 0.8026 -0.1256 -0.5831
vn 0.4089 0.6617 0.6284
vn -0.4713 0.6617 0.5831
vn -0.7002 0.6617 -0.2680
vn 0.0385 0.6617 -0.7488
vn 0.7240 0.6617 -0.1947
vn 0.2680 0.9435 -0.1947
vn 0.4911 0.7947 -0.3568
vn 0.4089 0.6617 -0.6284
vn -0.1024 0.9435 -0.3151
vn -0.1876 0.7947 -0.5773
vn -0.4713 0.6617 -0.5831
vn -0.3313 0.9435 0.0000
vn -0.6071 0.7947 0.0000
vn -0.7002 0.6617 0.2680
vn -0.1024 0.9435 0.3151
vn -0.1876 0.7947 0.5773
vn 0.0385 0.6617 0.7488
vn 0.2680 0.9435 0.1947
vn 0.4911 0.7947 0.3568
vn 0.7240 0.6617 0.1947
vn 0.8897 0.3304 -0.3151
vn 0.7947 0.1876 -0.5773
vn 0.5746 0.3304 -0.7488
vn -0.0247 0.3304 -0.9435
vn -0.3035 0.1876 -0.9342
vn -0.5346 0.3304 -0.7779
vn -0.9050 0.3304 -0.2680
vn -0.9822 0.1876 0.0000
vn -0.9050 0.3304 0.2680
vn -0.5346 0.3304 0.7779
vn -0.3035 0.1876 0.9342
vn -0.0247 0.3304 0.9435
vn 0.5746 0.3304 0.7488
vn 0.7947 0.1876 0.5773
vn 0.8897 0.3304 0.3151
vn 0.3066 0.1256 -0.9435
vn 0.3035 -0.1876 -0.9342
vn 0.0247 -0.3304 -0.9435
vn -0.8026 0.1256 -0.5831
vn -0.7947 -0.1876 -0.5773
vn -0.8897 -0.3304 -0.3151
vn -0.8026 0.1256 0.5831
vn -0.7947 -0.1876 0.5773
vn -0.5746 -0.3304 0.7488
vn 0.3066 0.1256 0.9435
vn 0.3035 -0.1876 0.9342
vn 0.5346 -0.3304 0.7779
vn 0.9921 0.1256 0.0000
vn 0.9822 -0.1876 0.0000
vn 0.9050 -0.3304 -0.2680
vn 0.4713 -0.6617 -0.5831
vn 0.1876 -0.7947 -0.5773
vn -0.0385 -0.6617 -0.7488
vn -0.4089 -0.6617 -0.6284
vn -0.4911 -0.7947 -0.3568
vn -0.7240 -0.6617 -0.1947
vn -0.7240 -0.6617 0.1947
vn -0.4911 -0.7947 0.3568
vn -0.4089 -0.6617 0.6284
vn 0.7002 -0.6617 -0.2680
vn 0.6071 -0.7947 0.0000
vn 0.3313 -0.9435 0.0000
vn -0.0385 -0.6617 0.7488
vn 0.1876 -0.7947 0.5773
vn 0.4713 -0.6617 0.5831
vn -0.0000 -0.1502 -0.9887
vn -1.0000 0.0000 0.0000
vn 0.0000 -1.0000 0.0000
vn 1.0000 0.0000 0.0000
vn 0.0000 1.0000 -0.0000
vn 0.0000 -0.2181 0.9759
vn -0.0000 0.2181 -0.9759
vn 0.0000 0.1502 0.9887
vn -0.0000 -0.2127 -0.9771
vn 0.0000 0.2127 0.9771
vn 0.0000 -0.5435 0.8394
vn -0.0000 0.2952 -0.9554
vn -0.9859 0.0616 0.1553
vn 0.0000 -0.3687 -0.9295
vn 0.9859 0.0616 0.1553
vn 0.0000 0.3687 0.9295
vn 0.0000 -0.8054 0.5927
vn 0.0000 0.9549 -0.2969
vn -0.9976 -0.0529 0.0446
vn 0.0000 0.7645 -0.6446
vn 0.9976 -0.0529 0.0446
vn 0.0000 -0.7645 0.6446
vn 0.0000 -0.6446 -0.7645
vn 0.0000 0.6446 0.7645
vn 0.9933 -0.0163 -0.1145
vn 0.0000 0.0809 0.9967
vn -0.9941 -0.0188 -0.1068
vn 0.0000 0.0773 -0.9970
vn 0.0000 -0.9980 0.0626
vn 0.0000 0.9517 -0.3071
vn -0.0000 -0.5526 -0.8335
vn 0.0000 0.5526 0.8335
vn 0.0000 0.9888 -0.1491
vn 0.0000 -0.9921 -0.1257
vn -0.9933 -0.0163 -0.1145
vn 0.9941 -0.0188 -0.1068
vn -0.9989 0.0322 -0.0350
vn 0.0000 -0.8255 0.5644
vn 0.9922 0.0180 -0.1235
vn 0.0000 -0.0423 -0.9991
vn 0.0000 0.9253 0.3792
vn 0.0000 -0.9470 -0.3212
vn 0.0000 -0.4041 -0.9147
vn 0.0000 0.6782 0.7348
vn 0.9989 0.0322 -0.0350
vn -0.9922 0.0180 -0.1235
usemtl None
s off
f 1/1/1 14/2/1 13/3/1
f 2/4/2 14/5/2 16/6/2
f 1/7/3 13/8/3 18/9/3
f 1/10/4 18/11/4 20/12/4
f 1/13/5 20/14/5 17/15/5
f 2/4/6 16/6/6 23/16/6
f 3/17/7 15/18/7 25/19/7
f 4/20/8 19/21/8 27/22/8
f 5/23/9 21/24/9 29/25/9
f 6/26/10 22/27/10 31/28/10
f 2/4/11 23/16/11 26/29/11
f 3/17/12 25/19/12 28/30/12
f 4/20/13 27/22/13 30/31/13
f 5/23/14 29/25/14 32/32/14
f 6/26/15 31/28/15 24/33/15
f 7/34/16 33/35/16 38/36/16
f 8/37/17 34/38/17 40/39/17
f 9/40/18 35/41/18 41/42/18
f 10/43/19 36/44/19 42/45/19
f 11/46/20 37/47/20 39/48/20
f 39/48/21 42/49/21 12/50/21
f 39/48/22 37/47/22 42/49/22
f 37/47/23 10/43/23 42/49/23
f 42/45/24 41/51/24 12/52/24
f 42/45/25 36/44/25 41/51/25
f 36/44/26 9/40/26 41/51/26
f 41/42/27 40/53/27 12/54/27
f 41/42/28 35/41/28 40/53/28
f 35/41/29 8/55/29 40/53/29
f 40/39/30 38/56/30 12/57/30
f 40/39/31 34/38/31 38/56/31
f 34/38/32 7/34/32 38/56/32
f 38/36/33 39/58/33 12/59/33
f 38/36/34 33/35/34 39/58/34
f 33/35/35 11/46/35 39/58/35
f 24/33/36 37/47/36 11/46/36
f 24/33/37 31/28/37 37/47/37
f 31/28/38 10/43/38 37/47/38
f 32/32/39 36/44/39 10/43/39
f 32/32/40 29/25/40 36/44/40
f 29/25/41 9/40/41 36/44/41
f 30/31/42 35/41/42 9/40/42
f 30/31/43 27/22/43 35/41/43
f 27/22/44 8/55/44 35/41/44
f 28/30/45 34/38/45 8/37/45
f 28/30/46 25/19/46 34/38/46
f 25/19/47 7/34/47 34/38/47
f 26/29/48 33/35/48 7/34/48
f 26/29/49 23/16/49 33/35/49
f 23/16/50 11/46/50 33/35/50
f 31/28/51 32/32/51 10/43/51
f 31/28/52 22/27/52 32/32/52
f 22/27/53 5/23/53 32/32/53
f 29/25/54 30/31/54 9/40/54
f 29/25/55 21/24/55 30/31/55
f 21/24/56 4/20/56 30/31/56
f 27/22/57 28/60/57 8/55/57
f 27/22/58 19/21/58 28/60/58
f 19/21/59 3/61/59 28/60/59
f 25/19/60 26/29/60 7/34/60
f 25/19/61 15/18/61 26/29/61
f 15/18/62 2/4/62 26/29/62
f 23/16/63 24/33/63 11/46/63
f 23/16/64 16/6/64 24/33/64
f 16/6/65 6/26/65 24/33/65
f 17/15/66 22/27/66 6/26/66
f 17/15/67 20/14/67 22/27/67
f 20/14/68 5/23/68 22/27/68
f 20/12/69 21/24/69 5/23/69
f 20/12/70 18/11/70 21/24/70
f 18/11/71 4/20/71 21/24/71
f 18/9/72 19/21/72 4/20/72
f 18/9/73 13/8/73 19/21/73
f 13/8/74 3/61/74 19/21/74
f 16/6/75 17/62/75 6/26/75
f 16/6/76 14/5/76 17/62/76
f 14/5/77 1/63/77 17/62/77
f 13/3/78 15/18/78 3/17/78
f 13/3/79 14/2/79 15/18/79
f 14/2/80 2/4/80 15/18/80
f 58/64/81 50/65/81 49/66/81 56/67/81
f 54/68/82 47/69/82 50/70/82 58/71/82
f 56/72/83 52/73/83 54/68/83 58/74/83
f 62/75/82 43/76/82 46/77/82 66/78/82
f 64/79/84 45/80/84 44/81/84 60/82/84
f 56/67/84 49/66/84 48/83/84 52/73/84
f 59/84/85 63/85/85 65/86/85 61/87/85
f 44/81/86 59/84/86 61/87/86 43/76/86
f 46/88/87 65/89/87 63/90/87 45/80/87
f 50/65/87 57/91/87 55/92/87 49/66/87
f 48/83/86 51/93/86 53/94/86 47/69/86
f 64/95/83 60/82/83 62/75/83 66/96/83
f 49/66/84 55/92/84 51/93/84 48/83/84
f 45/80/84 63/90/84 59/84/84 44/81/84
f 43/76/82 61/87/82 65/97/82 46/77/82
f 47/69/82 53/94/82 57/98/82 50/70/82
f 60/82/88 44/81/88 43/76/88 62/75/88
f 51/93/85 55/99/85 57/100/85 53/94/85
f 52/73/88 48/83/88 47/69/88 54/68/88
f 66/101/81 46/88/81 45/80/81 64/79/81
f 87/102/89 68/103/89 70/104/89 88/105/89
f 88/105/84 70/104/84 74/106/84 89/107/84
f 89/107/90 74/106/90 72/108/90 90/109/90
f 90/109/82 72/108/82 68/110/82 87/111/82
f 69/112/83 73/113/83 71/114/83 67/115/83
f 74/106/85 70/116/85 68/117/85 72/108/85
f 83/118/89 76/119/89 78/120/89 84/121/89
f 84/121/84 78/120/84 82/122/84 85/123/84
f 85/123/90 82/122/90 80/124/90 86/125/90
f 86/125/82 80/124/82 76/126/82 83/127/82
f 77/128/83 81/129/83 79/130/83 75/131/83
f 82/122/85 78/132/85 76/133/85 80/124/85
f 159/134/82 86/125/82 83/127/82 160/135/82
f 158/136/91 85/123/91 86/125/91 159/134/91
f 157/137/84 84/121/84 85/123/84 158/136/84
f 160/138/92 83/118/92 84/121/92 157/137/92
f 163/139/82 90/109/82 87/111/82 164/140/82
f 162/141/91 89/107/91 90/109/91 163/139/91
f 161/142/84 88/105/84 89/107/84 162/141/84
f 164/143/92 87/102/92 88/105/92 161/142/92
f 91/144/1 104/145/1 103/146/1
f 92/147/2 104/148/2 106/149/2
f 91/150/3 103/151/3 108/152/3
f 91/153/4 108/154/4 110/155/4
f 91/156/5 110/157/5 107/158/5
f 92/147/6 106/149/6 113/159/6
f 93/160/7 105/161/7 115/162/7
f 94/163/8 109/164/8 117/165/8
f 95/166/9 111/167/9 119/168/9
f 96/169/10 112/170/10 121/171/10
f 92/147/11 113/159/11 116/172/11
f 93/160/12 115/162/12 118/173/12
f 94/163/13 117/165/13 120/174/13
f 95/166/14 119/168/14 122/175/14
f 96/169/15 121/171/15 114/176/15
f 97/177/16 123/178/16 128/179/16
f 98/180/17 124/181/17 130/182/17
f 99/183/18 125/184/18 131/185/18
f 100/186/19 126/187/19 132/188/19
f 101/189/20 127/190/20 129/191/20
f 129/191/21 132/192/21 102/193/21
f 129/191/22 127/190/22 132/192/22
f 127/190/23 100/186/23 132/192/23
f 132/188/24 131/194/24 102/195/24
f 132/188/25 126/187/25 131/194/25
f 126/187/26 99/183/26 131/194/26
f 131/185/27 130/196/27 102/197/27
f 131/185/28 125/184/28 130/196/28
f 125/184/29 98/198/29 130/196/29
f 130/182/30 128/199/30 102/200/30
f 130/182/31 124/181/31 128/199/31
f 124/181/32 97/177/32 128/199/32
f 128/179/33 129/201/33 102/202/33
f 128/179/34 123/178/34 129/201/34
f 123/178/35 101/189/35 129/201/35
f 114/176/36 127/190/36 101/189/36
f 114/176/37 121/171/37 127/190/37
f 121/171/38 100/186/38 127/190/38
f 122/175/39 126/187/39 100/186/39
f 122/175/40 119/168/40 126/187/40
f 119/168/41 99/183/41 126/187/41
f 120/174/42 125/184/42 99/183/42
f 120/174/43 117/165/43 125/184/43
f 117/165/44 98/198/44 125/184/44
f 118/173/45 124/181/45 98/180/45
f 118/173/46 115/162/46 124/181/46
f 115/162/47 97/177/47 124/181/47
f 116/172/48 123/178/48 97/177/48
f 116/172/49 113/159/49 123/178/49
f 113/159/50 101/189/50 123/178/50
f 121/171/51 122/175/51 100/186/51
f 121/171/52 112/170/52 122/175/52
f 112/170/53 95/166/53 122/175/53
f 119/168/54 120/174/54 99/183/54
f 119/168/55 111/167/55 120/174/55
f 111/167/56 94/163/56 120/174/56
f 117/165/57 118/203/57 98/198/57
f 117/165/58 109/164/58 118/203/58
f 109/164/59 93/204/59 118/203/59
f 115/162/60 116/172/60 97/177/60
f 115/162/61 105/161/61 116/172/61
f 105/161/62 92/147/62 116/172/62
f 113/159/63 114/176/63 101/189/63
f 113/159/64 106/149/64 114/176/64
f 106/149/65 96/169/65 114/176/65
f 107/158/66 112/170/66 96/169/66
f 107/158/67 110/157/67 112/170/67
f 110/157/68 95/166/68 112/170/68
f 110/155/69 111/167/69 95/166/69
f 110/155/70 108/154/70 111/167/70
f 108/154/71 94/163/71 111/167/71
f 108/152/72 109/164/72 94/163/72
f 108/152/73 103/151/73 109/164/73
f 103/151/74 93/204/74 109/164/74
f 106/149/75 107/205/75 96/169/75
f 106/149/76 104/148/76 107/205/76
f 104/148/77 91/206/77 107/205/77
f 103/146/78 105/161/78 93/160/78
f 103/146/79 104/145/79 105/161/79
f 104/145/80 92/147/80 105/161/80
f 133/207/93 134/208/93 136/209/93 135/210/93
f 135/210/94 136/209/94 140/211/94 139/212/94
f 139/212/95 140/211/95 138/213/95 137/214/95
f 137/214/96 138/213/96 134/215/96 133/216/96
f 135/217/97 139/212/97 137/214/97 133/218/97
f 140/211/98 136/219/98 134/220/98 138/213/98
f 141/221/99 142/222/99 144/223/99 143/224/99
f 143/224/100 144/223/100 148/225/100 147/226/100
f 147/226/101 148/225/101 146/227/101 145/228/101
f 145/228/102 146/227/102 142/229/102 141/230/102
f 143/231/103 147/226/103 145/228/103 141/232/103
f 148/225/104 144/233/104 142/234/104 146/227/104
f 165/235/105 166/236/105 152/237/105 151/238/105
f 151/238/106 152/237/106 156/239/106 155/240/106
f 167/241/107 168/242/107 154/243/107 153/244/107
f 153/244/108 154/243/108 150/245/108 149/246/108
f 165/247/109 167/241/109 153/244/109 149/248/109
f 168/242/110 166/249/110 150/250/110 154/243/110
f 75/251/111 160/138/111 157/137/111 77/252/111
f 77/252/84 157/137/84 158/136/84 81/129/84
f 81/129/112 158/136/112 159/134/112 79/130/112
f 79/130/82 159/134/82 160/135/82 75/253/82
f 67/254/111 164/143/111 161/142/111 69/255/111
f 69/255/84 161/142/84 162/141/84 73/113/84
f 73/113/112 162/141/112 163/139/112 71/114/112
f 71/114/82 163/139/82 164/140/82 67/256/82
f 156/239/113 152/257/113 166/249/113 168/242/113
f 151/258/114 155/240/114 167/241/114 165/247/114
f 155/240/115 156/239/115 168/242/115 167/241/115
f 149/259/116 150/260/116 166/236/116 165/235/116
f 177/261/117 178/262/117 172/263/117 171/264/117
f 171/264/118 172/263/118 176/265/118 175/266/118
f 179/267/119 180/268/119 174/269/119 173/270/119
f 173/270/120 174/269/120 170/271/120 169/272/120
f 177/273/121 179/267/121 173/270/121 169/274/121
f 180/268/122 178/275/122 170/276/122 174/269/122
f 176/265/123 172/277/123 178/275/123 180/268/123
f 171/278/124 175/266/124 179/267/124 177/273/124
f 175/266/125 176/265/125 180/268/125 179/267/125
f 169/279/126 170/280/126 178/262/126 177/261/126
