# Blender v2.80 (sub 41) OBJ File: 'rex.blend'
# www.blender.org
mtllib rex.mtl
o Icosphere
v -0.000000 1.806792 -0.220175
v 0.610828 2.273418 0.223613
v -0.233311 2.273418 0.497895
v -0.755024 2.273421 -0.220175
v -0.233311 2.273418 -0.938244
v 0.610828 2.273418 -0.663962
v 0.233311 3.028453 0.497895
v -0.610828 3.028453 0.223613
v -0.610828 3.028453 -0.663962
v 0.233311 3.028453 -0.938244
v 0.755024 3.028449 -0.220175
v -0.000000 3.495079 -0.220175
v -0.137136 1.932861 0.201893
v 0.359033 1.932861 0.040675
v 0.221899 2.207137 0.462747
v 0.718069 2.207139 -0.220175
v 0.359033 1.932861 -0.481024
v -0.443791 1.932863 -0.220175
v -0.580930 2.207139 0.201895
v -0.137136 1.932861 -0.642242
v -0.580930 2.207139 -0.642244
v 0.221899 2.207137 -0.903096
v 0.802829 2.650935 0.040676
v 0.802829 2.650935 -0.481025
v -0.000000 2.650935 0.623969
v 0.496175 2.650935 0.462751
v -0.802829 2.650935 0.040676
v -0.496175 2.650935 0.462751
v -0.496175 2.650935 -0.903101
v -0.802829 2.650935 -0.481025
v 0.496175 2.650935 -0.903101
v -0.000000 2.650935 -1.064318
v 0.580930 3.094732 0.201895
v -0.221899 3.094733 0.462747
v -0.718069 3.094732 -0.220175
v -0.221899 3.094733 -0.903096
v 0.580930 3.094732 -0.642244
v 0.137136 3.369009 0.201893
v 0.443791 3.369008 -0.220175
v -0.359033 3.369009 0.040675
v -0.359033 3.369009 -0.481024
v 0.137136 3.369009 -0.642242
v -0.000000 1.532533 -1.422666
v 0.686731 2.057142 -0.923733
v -0.262303 2.057142 -0.615368
v -0.848844 2.057146 -1.422666
v -0.262303 2.057142 -2.229964
v 0.686731 2.057142 -1.921599
v 0.262303 2.905999 -0.615368
v -0.686731 2.905999 -0.923733
v -0.686731 2.905999 -1.921599
v 0.262303 2.905999 -2.229964
v 0.848844 2.905995 -1.422666
v -0.000000 3.430609 -1.422666
v -0.154177 1.674267 -0.948152
v 0.403647 1.674268 -1.129403
v 0.249472 1.982626 -0.654883
v 0.807297 1.982627 -1.422666
v 0.403647 1.674268 -1.715930
v -0.498938 1.674270 -1.422666
v -0.653118 1.982627 -0.948150
v -0.154177 1.674267 -1.897180
v -0.653118 1.982627 -1.897182
v 0.249472 1.982626 -2.190449
v 0.902590 2.481570 -1.129401
v 0.902590 2.481570 -1.715931
v -0.000000 2.481570 -0.473628
v 0.557831 2.481570 -0.654878
v -0.902590 2.481570 -1.129401
v -0.557831 2.481570 -0.654878
v -0.557831 2.481570 -2.190454
v -0.902590 2.481570 -1.715931
v 0.557831 2.481570 -2.190454
v -0.000000 2.481570 -2.371704
v 0.653118 2.980515 -0.948150
v -0.249472 2.980515 -0.654883
v -0.807297 2.980514 -1.422666
v -0.249472 2.980515 -2.190449
v 0.653118 2.980515 -1.897182
v 0.154177 3.288874 -0.948152
v 0.498938 3.288872 -1.422666
v -0.403647 3.288874 -1.129403
v -0.403647 3.288874 -1.715930
v 0.154177 3.288874 -1.897180
v -0.644800 1.870644 -1.946485
v -0.644800 3.160243 -1.946485
v -0.297169 2.353767 -4.828115
v -0.297169 2.948105 -4.828115
v 0.644800 1.870644 -1.946485
v 0.644800 3.160243 -1.946485
v 0.297169 2.353767 -4.828115
v 0.297169 2.948105 -4.828115
v -0.154867 2.195306 -6.774312
v -0.154867 2.496851 -6.845060
v 0.154867 2.195306 -6.774312
v 0.154867 2.496851 -6.845060
v -0.345914 2.559988 1.294102
v -0.345914 3.453879 1.191821
v -0.449862 2.457706 0.400211
v -0.449862 3.351598 0.297929
v 0.345914 2.559988 1.294102
v 0.345914 3.453879 1.191821
v 0.449862 2.457706 0.400211
v 0.449862 3.351598 0.297929
v -0.373164 2.630677 2.513459
v -0.373164 3.405590 2.620801
v -0.460033 2.853664 1.081236
v -0.460033 3.628577 1.188577
v 0.373164 2.630677 2.513459
v 0.373164 3.405590 2.620801
v 0.460033 2.853664 1.081236
v 0.460033 3.628577 1.188577
v -0.373164 2.290357 2.434051
v -0.373164 2.577478 2.501689
v -0.460033 2.513344 1.001828
v -0.460033 2.800466 1.069465
v 0.373164 2.290357 2.434051
v 0.373164 2.577478 2.501689
v 0.460033 2.513344 1.001828
v 0.460033 2.800466 1.069465
v 0.421852 1.025172 -1.124760
v 0.421852 2.570855 -0.994260
v 0.421852 1.355916 -1.890921
v 0.421852 2.570855 -1.921421
v 0.978148 1.025172 -1.124760
v 0.978148 2.570855 -0.994260
v 0.978148 1.355916 -1.890921
v 0.978148 2.570855 -1.921421
v 0.498067 0.588100 -2.286754
v 0.498067 0.784157 -2.587775
v 0.901933 0.588100 -2.286754
v 0.901933 0.784157 -2.587775
v 0.498067 -0.010802 -2.109987
v 0.498067 -0.010802 -2.682859
v 0.901933 -0.010802 -2.109987
v 0.901933 -0.010802 -2.682859
v -0.978148 1.025172 -1.124760
v -0.978148 2.570855 -0.994260
v -0.978148 1.355916 -1.890921
v -0.978148 2.570855 -1.921421
v -0.421852 1.025172 -1.124760
v -0.421852 2.570855 -0.994260
v -0.421852 1.355916 -1.890921
v -0.421852 2.570855 -1.921421
v -0.901933 0.588100 -2.286754
v -0.901933 0.784157 -2.587775
v -0.498067 0.588100 -2.286754
v -0.498067 0.784157 -2.587775
v -0.901933 -0.010802 -2.109987
v -0.901933 -0.010802 -2.682859
v -0.498067 -0.010802 -2.109987
v -0.498067 -0.010802 -2.682859
v -0.434700 1.565357 -0.164302
v -0.608428 2.042671 -0.207187
v -0.471875 1.667493 0.087476
v -0.608428 2.042671 0.097499
v -0.606487 1.502832 -0.164302
v -0.780215 1.980146 -0.207187
v -0.643661 1.604967 0.087476
v -0.780215 1.980146 0.097499
v -0.409111 1.421821 0.217556
v -0.431147 1.482365 0.316478
v -0.533826 1.376429 0.217556
v -0.555862 1.436972 0.316478
v -0.341797 1.236878 0.159466
v -0.341797 1.236878 0.347725
v -0.466513 1.191485 0.159466
v -0.466513 1.191485 0.347725
v 0.606487 1.502832 -0.164302
v 0.780215 1.980146 -0.207187
v 0.643661 1.604967 0.087476
v 0.780215 1.980146 0.097499
v 0.434700 1.565357 -0.164302
v 0.608428 2.042671 -0.207187
v 0.471874 1.667493 0.087476
v 0.608428 2.042671 0.097499
v 0.533826 1.376429 0.217556
v 0.555862 1.436972 0.316478
v 0.409111 1.421821 0.217556
v 0.431147 1.482365 0.316478
v 0.466512 1.191485 0.159466
v 0.466512 1.191485 0.347725
v 0.341797 1.236878 0.159466
v 0.341797 1.236878 0.347725
vt 0.818181 0.000000
vt 0.772726 0.078731
vt 0.863635 0.078731
vt 0.727272 0.157461
vt 0.681818 0.078731
vt 0.636363 0.157461
vt 0.090909 0.000000
vt 0.045454 0.078731
vt 0.136363 0.078731
vt 0.272727 0.000000
vt 0.227273 0.078731
vt 0.318182 0.078731
vt 0.454545 0.000000
vt 0.409090 0.078731
vt 0.500000 0.078731
vt 0.681818 0.236191
vt 0.909090 0.157461
vt 0.818181 0.157461
vt 0.863635 0.236191
vt 0.181818 0.157461
vt 0.090909 0.157461
vt 0.136363 0.236191
vt 0.363636 0.157461
vt 0.272727 0.157461
vt 0.318182 0.236191
vt 0.545454 0.157461
vt 0.454545 0.157461
vt 0.500000 0.236191
vt 0.772726 0.236191
vt 0.954545 0.236191
vt 0.227273 0.236191
vt 0.409090 0.236191
vt 0.590909 0.236191
vt 0.818181 0.314921
vt 0.727272 0.314921
vt 0.772726 0.393651
vt 1.000000 0.314921
vt 0.909091 0.314921
vt 0.954545 0.393651
vt 0.272727 0.314921
vt 0.181818 0.314921
vt 0.227273 0.393651
vt 0.454545 0.314921
vt 0.363636 0.314921
vt 0.409090 0.393651
vt 0.636363 0.314921
vt 0.545454 0.314921
vt 0.590909 0.393651
vt 0.500000 0.393651
vt 0.545454 0.472382
vt 0.318182 0.393651
vt 0.363636 0.472382
vt 0.136363 0.393651
vt 0.181818 0.472382
vt 0.090909 0.314921
vt 0.863635 0.393651
vt 0.909090 0.472382
vt 0.681818 0.393651
vt 0.727272 0.472382
vt 0.045454 0.236191
vt 0.000000 0.157461
vt 0.590909 0.078731
vt 0.636363 0.000000
vt 0.818181 0.000000
vt 0.772726 0.078731
vt 0.863635 0.078731
vt 0.727272 0.157461
vt 0.681818 0.078731
vt 0.636363 0.157461
vt 0.090909 0.000000
vt 0.045454 0.078731
vt 0.136363 0.078731
vt 0.272727 0.000000
vt 0.227273 0.078731
vt 0.318182 0.078731
vt 0.454545 0.000000
vt 0.409090 0.078731
vt 0.500000 0.078731
vt 0.681818 0.236191
vt 0.909090 0.157461
vt 0.818181 0.157461
vt 0.863635 0.236191
vt 0.181818 0.157461
vt 0.090909 0.157461
vt 0.136363 0.236191
vt 0.363636 0.157461
vt 0.272727 0.157461
vt 0.318182 0.236191
vt 0.545454 0.157461
vt 0.454545 0.157461
vt 0.500000 0.236191
vt 0.772726 0.236191
vt 0.954545 0.236191
vt 0.227273 0.236191
vt 0.409090 0.236191
vt 0.590909 0.236191
vt 0.818181 0.314921
vt 0.727272 0.314921
vt 0.772726 0.393651
vt 1.000000 0.314921
vt 0.909091 0.314921
vt 0.954545 0.393651
vt 0.272727 0.314921
vt 0.181818 0.314921
vt 0.227273 0.393651
vt 0.454545 0.314921
vt 0.363636 0.314921
vt 0.409090 0.393651
vt 0.636363 0.314921
vt 0.545454 0.314921
vt 0.590909 0.393651
vt 0.500000 0.393651
vt 0.545454 0.472382
vt 0.318182 0.393651
vt 0.363636 0.472382
vt 0.136363 0.393651
vt 0.181818 0.472382
vt 0.090909 0.314921
vt 0.863635 0.393651
vt 0.909090 0.472382
vt 0.681818 0.393651
vt 0.727272 0.472382
vt 0.045454 0.236191
vt 0.000000 0.157461
vt 0.590909 0.078731
vt 0.636363 0.000000
vt 0.375000 0.000000
vt 0.625000 0.000000
vt 0.625000 0.250000
vt 0.375000 0.250000
vt 0.625000 0.500000
vt 0.375000 0.500000
vt 0.375000 0.500000
vt 0.625000 0.500000
vt 0.625000 0.750000
vt 0.375000 0.750000
vt 0.625000 1.000000
vt 0.375000 1.000000
vt 0.125000 0.500000
vt 0.125000 0.750000
vt 0.875000 0.500000
vt 0.875000 0.750000
vt 0.375000 0.250000
vt 0.625000 0.250000
vt 0.125000 0.500000
vt 0.875000 0.500000
vt 0.375000 0.000000
vt 0.625000 0.000000
vt 0.625000 0.250000
vt 0.375000 0.250000
vt 0.625000 0.500000
vt 0.375000 0.500000
vt 0.625000 0.750000
vt 0.375000 0.750000
vt 0.625000 1.000000
vt 0.375000 1.000000
vt 0.125000 0.500000
vt 0.125000 0.750000
vt 0.875000 0.500000
vt 0.875000 0.750000
vt 0.375000 0.000000
vt 0.625000 0.000000
vt 0.625000 0.250000
vt 0.375000 0.250000
vt 0.625000 0.500000
vt 0.375000 0.500000
vt 0.625000 0.750000
vt 0.375000 0.750000
vt 0.625000 1.000000
vt 0.375000 1.000000
vt 0.125000 0.500000
vt 0.125000 0.750000
vt 0.875000 0.500000
vt 0.875000 0.750000
vt 0.375000 0.000000
vt 0.625000 0.000000
vt 0.625000 0.250000
vt 0.375000 0.250000
vt 0.625000 0.500000
vt 0.375000 0.500000
vt 0.625000 0.750000
vt 0.375000 0.750000
vt 0.625000 1.000000
vt 0.375000 1.000000
vt 0.125000 0.500000
vt 0.125000 0.750000
vt 0.875000 0.500000
vt 0.875000 0.750000
vt 0.375000 0.000000
vt 0.625000 0.000000
vt 0.625000 0.250000
vt 0.375000 0.250000
vt 0.625000 0.500000
vt 0.375000 0.500000
vt 0.625000 0.750000
vt 0.375000 0.750000
vt 0.625000 1.000000
vt 0.375000 1.000000
vt 0.375000 1.000000
vt 0.375000 0.750000
vt 0.875000 0.500000
vt 0.875000 0.750000
vt 0.375000 1.000000
vt 0.375000 0.750000
vt 0.375000 0.500000
vt 0.375000 0.250000
vt 0.375000 0.000000
vt 0.125000 0.500000
vt 0.375000 0.500000
vt 0.125000 0.750000
vt 0.375000 0.250000
vt 0.375000 0.000000
vt 0.375000 0.000000
vt 0.625000 0.000000
vt 0.625000 0.250000
vt 0.375000 0.250000
vt 0.625000 0.500000
vt 0.375000 0.500000
vt 0.625000 0.750000
vt 0.375000 0.750000
vt 0.625000 1.000000
vt 0.375000 1.000000
vt 0.375000 1.000000
vt 0.375000 0.750000
vt 0.875000 0.500000
vt 0.875000 0.750000
vt 0.375000 1.000000
vt 0.375000 0.750000
vt 0.375000 0.500000
vt 0.375000 0.250000
vt 0.375000 0.000000
vt 0.125000 0.500000
vt 0.375000 0.500000
vt 0.125000 0.750000
vt 0.375000 0.250000
vt 0.375000 0.000000
vt 0.375000 0.000000
vt 0.625000 0.000000
vt 0.625000 0.250000
vt 0.375000 0.250000
vt 0.625000 0.500000
vt 0.375000 0.500000
vt 0.625000 0.750000
vt 0.375000 0.750000
vt 0.625000 1.000000
vt 0.375000 1.000000
vt 0.375000 1.000000
vt 0.375000 0.750000
vt 0.875000 0.500000
vt 0.875000 0.750000
vt 0.375000 1.000000
vt 0.375000 0.750000
vt 0.375000 0.500000
vt 0.375000 0.250000
vt 0.375000 0.000000
vt 0.125000 0.500000
vt 0.375000 0.500000
vt 0.125000 0.750000
vt 0.375000 0.250000
vt 0.375000 0.000000
vt 0.375000 0.000000
vt 0.625000 0.000000
vt 0.625000 0.250000
vt 0.375000 0.250000
vt 0.625000 0.500000
vt 0.375000 0.500000
vt 0.625000 0.750000
vt 0.375000 0.750000
vt 0.625000 1.000000
vt 0.375000 1.000000
vt 0.375000 1.000000
vt 0.375000 0.750000
vt 0.875000 0.500000
vt 0.875000 0.750000
vt 0.375000 1.000000
vt 0.375000 0.750000
vt 0.375000 0.500000
vt 0.375000 0.250000
vt 0.375000 0.000000
vt 0.125000 0.500000
vt 0.375000 0.500000
vt 0.125000 0.750000
vt 0.375000 0.250000
vt 0.375000 0.000000
vn 0.1024 -0.9435 0.3151
vn 0.7002 -0.6617 0.2680
vn -0.2680 -0.9435 0.1947
vn -0.2680 -0.9435 -0.1947
vn 0.1024 -0.9435 -0.3151
vn 0.9050 -0.3304 0.2680
vn 0.0247 -0.3304 0.9435
vn -0.8897 -0.3304 0.3151
vn -0.5746 -0.3304 -0.7488
vn 0.5346 -0.3304 -0.7779
vn 0.8026 -0.1256 0.5831
vn -0.3066 -0.1256 0.9435
vn -0.9921 -0.1256 0.0000
vn -0.3066 -0.1256 -0.9435
vn 0.8026 -0.1256 -0.5831
vn 0.4089 0.6617 0.6284
vn -0.4713 0.6617 0.5831
vn -0.7002 0.6617 -0.2680
vn 0.0385 0.6617 -0.7488
vn 0.7240 0.6617 -0.1947
vn 0.2680 0.9435 -0.1947
vn 0.4911 0.7947 -0.3568
vn 0.4089 0.6617 -0.6284
vn -0.1024 0.9435 -0.3151
vn -0.1876 0.7947 -0.5773
vn -0.4713 0.6617 -0.5831
vn -0.3313 0.9435 0.0000
vn -0.6071 0.7947 0.0000
vn -0.7002 0.6617 0.2680
vn -0.1024 0.9435 0.3151
vn -0.1876 0.7947 0.5773
vn 0.0385 0.6617 0.7488
vn 0.2680 0.9435 0.1947
vn 0.4911 0.7947 0.3568
vn 0.7240 0.6617 0.1947
vn 0.8897 0.3304 -0.3151
vn 0.7947 0.1876 -0.5773
vn 0.5746 0.3304 -0.7488
vn -0.0247 0.3304 -0.9435
vn -0.3035 0.1876 -0.9342
vn -0.5346 0.3304 -0.7779
vn -0.9050 0.3304 -0.2680
vn -0.9822 0.1876 0.0000
vn -0.9050 0.3304 0.2680
vn -0.5346 0.3304 0.7779
vn -0.3035 0.1876 0.9342
vn -0.0247 0.3304 0.9435
vn 0.5746 0.3304 0.7488
vn 0.7947 0.1876 0.5773
vn 0.8897 0.3304 0.3151
vn 0.3066 0.1256 -0.9435
vn 0.3035 -0.1876 -0.9342
vn 0.0247 -0.3304 -0.9435
vn -0.8026 0.1256 -0.5831
vn -0.7947 -0.1876 -0.5773
vn -0.8897 -0.3304 -0.3151
vn -0.8026 0.1256 0.5831
vn -0.7947 -0.1876 0.5773
vn -0.5746 -0.3304 0.7488
vn 0.3066 0.1256 0.9435
vn 0.3035 -0.1876 0.9342
vn 0.5346 -0.3304 0.7779
vn 0.9921 0.1256 0.0000
vn 0.9822 -0.1876 0.0000
vn 0.9050 -0.3304 -0.2680
vn 0.4713 -0.6617 -0.5831
vn 0.1876 -0.7947 -0.5773
vn -0.0385 -0.6617 -0.7488
vn -0.4089 -0.6617 -0.6284
vn -0.4911 -0.7947 -0.3568
vn -0.7240 -0.6617 -0.1947
vn -0.7240 -0.6617 0.1947
vn -0.4911 -0.7947 0.3568
vn -0.4089 -0.6617 0.6284
vn 0.7002 -0.6617 -0.2680
vn 0.6071 -0.7947 0.0000
vn 0.3313 -0.9435 0.0000
vn -0.0385 -0.6617 0.7488
vn 0.1876 -0.7947 0.5773
vn 0.4713 -0.6617 0.5831
vn -0.9928 0.0000 -0.1198
vn 0.9975 -0.0056 -0.0708
vn 0.9928 0.0000 -0.1198
vn 0.0000 0.0000 1.0000
vn 0.0000 -0.9862 -0.1653
vn 0.0000 0.9973 -0.0734
vn 0.0000 -0.2284 -0.9736
vn 0.0000 -0.9967 0.0812
vn 0.0000 0.9759 -0.2183
vn -0.9975 -0.0056 -0.0708
vn -0.9934 0.0130 0.1140
vn 0.0000 -0.1137 -0.9935
vn 0.9934 0.0130 0.1140
vn 0.0000 0.1137 0.9935
vn 0.0000 -0.9935 0.1137
vn 0.0000 0.9935 -0.1137
vn -0.9982 -0.0082 0.0593
vn 0.0000 0.1372 -0.9905
vn 0.9982 -0.0082 0.0593
vn 0.0000 -0.1372 0.9905
vn 0.0000 -0.9881 -0.1538
vn 0.0000 0.9881 0.1538
vn -0.9982 -0.0138 0.0584
vn 0.0000 0.2293 -0.9734
vn 0.9982 -0.0138 0.0584
vn 0.0000 -0.2293 0.9734
vn -1.0000 -0.0000 0.0000
vn 0.0000 -0.0251 -0.9997
vn 1.0000 0.0000 0.0000
vn 0.0000 -0.0841 0.9965
vn 0.0000 -0.9360 0.3521
vn 0.0000 1.0000 0.0000
vn 0.0000 0.2831 0.9591
vn 0.0000 0.7731 -0.6343
vn -0.9961 -0.0788 -0.0389
vn 0.9961 -0.0788 -0.0389
vn 0.0000 -1.0000 0.0000
vn 0.0000 0.1188 -0.9929
vn 0.9397 0.3420 0.0000
vn 0.0086 -0.0236 0.9997
vn -0.9397 -0.3420 0.0000
vn 0.0288 -0.0791 -0.9965
vn 0.3201 -0.8795 -0.3521
vn -0.3420 0.9397 0.0000
vn -0.0968 0.2660 -0.9591
vn -0.2644 0.7265 0.6343
vn 0.9630 0.2666 0.0389
vn -0.9091 -0.4148 0.0389
vn 0.3420 -0.9397 0.0000
vn -0.0406 0.1116 0.9929
vn 0.9397 -0.3420 0.0000
vn -0.0086 -0.0236 0.9997
vn -0.9397 0.3420 0.0000
vn -0.0288 -0.0791 -0.9965
vn -0.3201 -0.8795 -0.3521
vn 0.3420 0.9397 0.0000
vn 0.0968 0.2660 -0.9591
vn 0.2644 0.7265 0.6343
vn 0.9091 -0.4148 0.0389
vn -0.9630 0.2666 0.0389
vn -0.3420 -0.9397 0.0000
vn 0.0406 0.1116 0.9929
usemtl None
s off
f 1/1/1 14/2/1 13/3/1
f 2/4/2 14/5/2 16/6/2
f 1/7/3 13/8/3 18/9/3
f 1/10/4 18/11/4 20/12/4
f 1/13/5 20/14/5 17/15/5
f 2/4/6 16/6/6 23/16/6
f 3/17/7 15/18/7 25/19/7
f 4/20/8 19/21/8 27/22/8
f 5/23/9 21/24/9 29/25/9
f 6/26/10 22/27/10 31/28/10
f 2/4/11 23/16/11 26/29/11
f 3/17/12 25/19/12 28/30/12
f 4/20/13 27/22/13 30/31/13
f 5/23/14 29/25/14 32/32/14
f 6/26/15 31/28/15 24/33/15
f 7/34/16 33/35/16 38/36/16
f 8/37/17 34/38/17 40/39/17
f 9/40/18 35/41/18 41/42/18
f 10/43/19 36/44/19 42/45/19
f 11/46/20 37/47/20 39/48/20
f 39/48/21 42/49/21 12/50/21
f 39/48/22 37/47/22 42/49/22
f 37/47/23 10/43/23 42/49/23
f 42/45/24 41/51/24 12/52/24
f 42/45/25 36/44/25 41/51/25
f 36/44/26 9/40/26 41/51/26
f 41/42/27 40/53/27 12/54/27
f 41/42/28 35/41/28 40/53/28
f 35/41/29 8/55/29 40/53/29
f 40/39/30 38/56/30 12/57/30
f 40/39/31 34/38/31 38/56/31
f 34/38/32 7/34/32 38/56/32
f 38/36/33 39/58/33 12/59/33
f 38/36/34 33/35/34 39/58/34
f 33/35/35 11/46/35 39/58/35
f 24/33/36 37/47/36 11/46/36
f 24/33/37 31/28/37 37/47/37
f 31/28/38 10/43/38 37/47/38
f 32/32/39 36/44/39 10/43/39
f 32/32/40 29/25/40 36/44/40
f 29/25/41 9/40/41 36/44/41
f 30/31/42 35/41/42 9/40/42
f 30/31/43 27/22/43 35/41/43
f 27/22/44 8/55/44 35/41/44
f 28/30/45 34/38/45 8/37/45
f 28/30/46 25/19/46 34/38/46
f 25/19/47 7/34/47 34/38/47
f 26/29/48 33/35/48 7/34/48
f 26/29/49 23/16/49 33/35/49
f 23/16/50 11/46/50 33/35/50
f 31/28/51 32/32/51 10/43/51
f 31/28/52 22/27/52 32/32/52
f 22/27/53 5/23/53 32/32/53
f 29/25/54 30/31/54 9/40/54
f 29/25/55 21/24/55 30/31/55
f 21/24/56 4/20/56 30/31/56
f 27/22/57 28/60/57 8/55/57
f 27/22/58 19/21/58 28/60/58
f 19/21/59 3/61/59 28/60/59
f 25/19/60 26/29/60 7/34/60
f 25/19/61 15/18/61 26/29/61
f 15/18/62 2/4/62 26/29/62
f 23/16/63 24/33/63 11/46/63
f 23/16/64 16/6/64 24/33/64
f 16/6/65 6/26/65 24/33/65
f 17/15/66 22/27/66 6/26/66
f 17/15/67 20/14/67 22/27/67
f 20/14/68 5/23/68 22/27/68
f 20/12/69 21/24/69 5/23/69
f 20/12/70 18/11/70 21/24/70
f 18/11/71 4/20/71 21/24/71
f 18/9/72 19/21/72 4/20/72
f 18/9/73 13/8/73 19/21/73
f 13/8/74 3/61/74 19/21/74
f 16/6/75 17/62/75 6/26/75
f 16/6/76 14/5/76 17/62/76
f 14/5/77 1/63/77 17/62/77
f 13/3/78 15/18/78 3/17/78
f 13/3/79 14/2/79 15/18/79
f 14/2/80 2/4/80 15/18/80
f 43/64/1 56/65/1 55/66/1
f 44/67/2 56/68/2 58/69/2
f 43/70/3 55/71/3 60/72/3
f 43/73/4 60/74/4 62/75/4
f 43/76/5 62/77/5 59/78/5
f 44/67/6 58/69/6 65/79/6
f 45/80/7 57/81/7 67/82/7
f 46/83/8 61/84/8 69/85/8
f 47/86/9 63/87/9 71/88/9
f 48/89/10 64/90/10 73/91/10
f 44/67/11 65/79/11 68/92/11
f 45/80/12 67/82/12 70/93/12
f 46/83/13 69/85/13 72/94/13
f 47/86/14 71/88/14 74/95/14
f 48/89/15 73/91/15 66/96/15
f 49/97/16 75/98/16 80/99/16
f 50/100/17 76/101/17 82/102/17
f 51/103/18 77/104/18 83/105/18
f 52/106/19 78/107/19 84/108/19
f 53/109/20 79/110/20 81/111/20
f 81/111/21 84/112/21 54/113/21
f 81/111/22 79/110/22 84/112/22
f 79/110/23 52/106/23 84/112/23
f 84/108/24 83/114/24 54/115/24
f 84/108/25 78/107/25 83/114/25
f 78/107/26 51/103/26 83/114/26
f 83/105/27 82/116/27 54/117/27
f 83/105/28 77/104/28 82/116/28
f 77/104/29 50/118/29 82/116/29
f 82/102/30 80/119/30 54/120/30
f 82/102/31 76/101/31 80/119/31
f 76/101/32 49/97/32 80/119/32
f 80/99/33 81/121/33 54/122/33
f 80/99/34 75/98/34 81/121/34
f 75/98/35 53/109/35 81/121/35
f 66/96/36 79/110/36 53/109/36
f 66/96/37 73/91/37 79/110/37
f 73/91/38 52/106/38 79/110/38
f 74/95/39 78/107/39 52/106/39
f 74/95/40 71/88/40 78/107/40
f 71/88/41 51/103/41 78/107/41
f 72/94/42 77/104/42 51/103/42
f 72/94/43 69/85/43 77/104/43
f 69/85/44 50/118/44 77/104/44
f 70/93/45 76/101/45 50/100/45
f 70/93/46 67/82/46 76/101/46
f 67/82/47 49/97/47 76/101/47
f 68/92/48 75/98/48 49/97/48
f 68/92/49 65/79/49 75/98/49
f 65/79/50 53/109/50 75/98/50
f 73/91/51 74/95/51 52/106/51
f 73/91/52 64/90/52 74/95/52
f 64/90/53 47/86/53 74/95/53
f 71/88/54 72/94/54 51/103/54
f 71/88/55 63/87/55 72/94/55
f 63/87/56 46/83/56 72/94/56
f 69/85/57 70/123/57 50/118/57
f 69/85/58 61/84/58 70/123/58
f 61/84/59 45/124/59 70/123/59
f 67/82/60 68/92/60 49/97/60
f 67/82/61 57/81/61 68/92/61
f 57/81/62 44/67/62 68/92/62
f 65/79/63 66/96/63 53/109/63
f 65/79/64 58/69/64 66/96/64
f 58/69/65 48/89/65 66/96/65
f 59/78/66 64/90/66 48/89/66
f 59/78/67 62/77/67 64/90/67
f 62/77/68 47/86/68 64/90/68
f 62/75/69 63/87/69 47/86/69
f 62/75/70 60/74/70 63/87/70
f 60/74/71 46/83/71 63/87/71
f 60/72/72 61/84/72 46/83/72
f 60/72/73 55/71/73 61/84/73
f 55/71/74 45/124/74 61/84/74
f 58/69/75 59/125/75 48/89/75
f 58/69/76 56/68/76 59/125/76
f 56/68/77 43/126/77 59/125/77
f 55/66/78 57/81/78 45/80/78
f 55/66/79 56/65/79 57/81/79
f 56/65/80 44/67/80 57/81/80
f 85/127/81 86/128/81 88/129/81 87/130/81
f 92/131/82 91/132/82 95/133/82 96/134/82
f 91/132/83 92/131/83 90/135/83 89/136/83
f 89/136/84 90/135/84 86/137/84 85/138/84
f 87/139/85 91/132/85 89/136/85 85/140/85
f 92/131/86 88/141/86 86/142/86 90/135/86
f 93/143/87 94/144/87 96/134/87 95/133/87
f 91/132/88 87/139/88 93/145/88 95/133/88
f 88/141/89 92/131/89 96/134/89 94/146/89
f 87/130/90 88/129/90 94/144/90 93/143/90
f 97/147/91 98/148/91 100/149/91 99/150/91
f 99/150/92 100/149/92 104/151/92 103/152/92
f 103/152/93 104/151/93 102/153/93 101/154/93
f 101/154/94 102/153/94 98/155/94 97/156/94
f 99/157/95 103/152/95 101/154/95 97/158/95
f 104/151/96 100/159/96 98/160/96 102/153/96
f 105/161/97 106/162/97 108/163/97 107/164/97
f 107/164/98 108/163/98 112/165/98 111/166/98
f 111/166/99 112/165/99 110/167/99 109/168/99
f 109/168/100 110/167/100 106/169/100 105/170/100
f 107/171/101 111/166/101 109/168/101 105/172/101
f 112/165/102 108/173/102 106/174/102 110/167/102
f 113/175/103 114/176/103 116/177/103 115/178/103
f 115/178/104 116/177/104 120/179/104 119/180/104
f 119/180/105 120/179/105 118/181/105 117/182/105
f 117/182/106 118/181/106 114/183/106 113/184/106
f 115/185/101 119/180/101 117/182/101 113/186/101
f 120/179/102 116/187/102 114/188/102 118/181/102
f 121/189/107 122/190/107 124/191/107 123/192/107
f 123/192/108 124/191/108 128/193/108 127/194/108
f 127/194/109 128/193/109 126/195/109 125/196/109
f 125/196/110 126/195/110 122/197/110 121/198/110
f 125/196/111 121/198/111 129/199/111 131/200/111
f 128/193/112 124/201/112 122/202/112 126/195/112
f 131/200/113 129/199/113 133/203/113 135/204/113
f 123/192/114 127/194/114 132/205/114 130/206/114
f 121/189/115 123/192/115 130/206/115 129/207/115
f 127/194/116 125/196/116 131/200/116 132/205/116
f 134/208/117 136/209/117 135/204/117 133/210/117
f 130/206/118 132/205/118 136/209/118 134/211/118
f 132/205/109 131/200/109 135/204/109 136/209/109
f 129/207/107 130/206/107 134/211/107 133/212/107
f 137/213/107 138/214/107 140/215/107 139/216/107
f 139/216/108 140/215/108 144/217/108 143/218/108
f 143/218/109 144/217/109 142/219/109 141/220/109
f 141/220/110 142/219/110 138/221/110 137/222/110
f 141/220/111 137/222/111 145/223/111 147/224/111
f 144/217/112 140/225/112 138/226/112 142/219/112
f 147/224/113 145/223/113 149/227/113 151/228/113
f 139/216/114 143/218/114 148/229/114 146/230/114
f 137/213/115 139/216/115 146/230/115 145/231/115
f 143/218/116 141/220/116 147/224/116 148/229/116
f 150/232/117 152/233/117 151/228/117 149/234/117
f 146/230/118 148/229/118 152/233/118 150/235/118
f 148/229/109 147/224/109 151/228/109 152/233/109
f 145/231/107 146/230/107 150/235/107 149/236/107
f 153/237/119 154/238/119 156/239/119 155/240/119
f 155/240/120 156/239/120 160/241/120 159/242/120
f 159/242/121 160/241/121 158/243/121 157/244/121
f 157/244/122 158/243/122 154/245/122 153/246/122
f 157/244/123 153/246/123 161/247/123 163/248/123
f 160/241/124 156/249/124 154/250/124 158/243/124
f 163/248/125 161/247/125 165/251/125 167/252/125
f 155/240/126 159/242/126 164/253/126 162/254/126
f 153/237/127 155/240/127 162/254/127 161/255/127
f 159/242/128 157/244/128 163/248/128 164/253/128
f 166/256/129 168/257/129 167/252/129 165/258/129
f 162/254/130 164/253/130 168/257/130 166/259/130
f 164/253/121 163/248/121 167/252/121 168/257/121
f 161/255/119 162/254/119 166/259/119 165/260/119
f 169/261/131 170/262/131 172/263/131 171/264/131
f 171/264/132 172/263/132 176/265/132 175/266/132
f 175/266/133 176/265/133 174/267/133 173/268/133
f 173/268/134 174/267/134 170/269/134 169/270/134
f 173/268/135 169/270/135 177/271/135 179/272/135
f 176/265/136 172/273/136 170/274/136 174/267/136
f 179/272/137 177/271/137 181/275/137 183/276/137
f 171/264/138 175/266/138 180/277/138 178/278/138
f 169/261/139 171/264/139 178/278/139 177/279/139
f 175/266/140 173/268/140 179/272/140 180/277/140
f 182/280/141 184/281/141 183/276/141 181/282/141
f 178/278/142 180/277/142 184/281/142 182/283/142
f 180/277/133 179/272/133 183/276/133 184/281/133
f 177/279/131 178/278/131 182/283/131 181/284/131
